<svg xmlns="http://www.w3.org/2000/svg" xmlns:xlink="http://www.w3.org/1999/xlink" version="1.1" width="256" height="256" viewBox="0 0 256 256" xml:space="preserve">

<defs>
</defs>
<g style="stroke: none; stroke-width: 0; stroke-dasharray: none; stroke-linecap: butt; stroke-linejoin: miter; stroke-miterlimit: 10; fill: rgb(238,238,238); fill-rule: nonzero; opacity: 1;" transform="translate(1.4065934065934016 1.4065934065934016) scale(2.81 2.81)" >
	<path d="M 85.437 27.769 h -1.683 v -0.642 c 0 -2.516 -2.048 -4.563 -4.564 -4.563 H 77.91 v -1.137 c 0 -2.516 -2.047 -4.563 -4.563 -4.563 H 4.563 C 2.047 16.863 0 18.91 0 21.426 v 42.523 c 0 5.066 4.122 9.188 9.188 9.188 h 72.768 c 4.436 0 8.045 -4.322 8.045 -9.636 V 32.332 C 90 29.816 87.953 27.769 85.437 27.769 z M 9.188 69.137 C 6.327 69.137 4 66.81 4 63.949 V 21.426 c 0 -0.311 0.253 -0.563 0.563 -0.563 h 68.783 c 0.311 0 0.563 0.253 0.563 0.563 v 42.075 c 0 2.103 0.565 4.05 1.523 5.636 H 9.188 z M 86 63.501 c 0 3.055 -1.853 5.636 -4.045 5.636 s -4.045 -2.581 -4.045 -5.636 V 26.563 h 1.279 c 0.312 0 0.564 0.253 0.564 0.563 v 36.869 c 0 1.104 0.896 2 2 2 s 2 -0.896 2 -2 V 31.769 h 1.683 c 0.311 0 0.563 0.253 0.563 0.563 V 63.501 z" style="stroke: none; stroke-width: 1; stroke-dasharray: none; stroke-linecap: butt; stroke-linejoin: miter; stroke-miterlimit: 10; fill: rgb(238,238,238); fill-rule: nonzero; opacity: 1;" transform=" matrix(1 0 0 1 0 0) " stroke-linecap="round" />
	<path d="M 23.368 63.661 H 9.24 c -1.784 0 -3.235 -1.451 -3.235 -3.235 V 48.908 c 0 -1.783 1.451 -3.234 3.235 -3.234 h 14.128 c 1.783 0 3.234 1.451 3.234 3.234 v 11.518 C 26.603 62.21 25.151 63.661 23.368 63.661 z M 10.005 59.661 h 12.597 v -9.987 H 10.005 V 59.661 z" style="stroke: none; stroke-width: 1; stroke-dasharray: none; stroke-linecap: butt; stroke-linejoin: miter; stroke-miterlimit: 10; fill: rgb(238,238,238); fill-rule: nonzero; opacity: 1;" transform=" matrix(1 0 0 1 0 0) " stroke-linecap="round" />
	<path d="M 69.46 49.674 h -38.25 c -1.104 0 -2 -0.896 -2 -2 s 0.896 -2 2 -2 h 38.25 c 1.104 0 2 0.896 2 2 S 70.564 49.674 69.46 49.674 z" style="stroke: none; stroke-width: 1; stroke-dasharray: none; stroke-linecap: butt; stroke-linejoin: miter; stroke-miterlimit: 10; fill: rgb(238,238,238); fill-rule: nonzero; opacity: 1;" transform=" matrix(1 0 0 1 0 0) " stroke-linecap="round" />
	<path d="M 69.46 56.667 h -38.25 c -1.104 0 -2 -0.896 -2 -2 s 0.896 -2 2 -2 h 38.25 c 1.104 0 2 0.896 2 2 S 70.564 56.667 69.46 56.667 z" style="stroke: none; stroke-width: 1; stroke-dasharray: none; stroke-linecap: butt; stroke-linejoin: miter; stroke-miterlimit: 10; fill: rgb(238,238,238)); fill-rule: nonzero; opacity: 1;" transform=" matrix(1 0 0 1 0 0) " stroke-linecap="round" />
	<path d="M 58.406 63.661 H 31.209 c -1.104 0 -2 -0.896 -2 -2 s 0.896 -2 2 -2 h 27.197 c 1.104 0 2 0.896 2 2 S 59.511 63.661 58.406 63.661 z" style="stroke: none; stroke-width: 1; stroke-dasharray: none; stroke-linecap: butt; stroke-linejoin: miter; stroke-miterlimit: 10; fill:rgb(238,238,238); fill-rule: nonzero; opacity: 1;" transform=" matrix(1 0 0 1 0 0) " stroke-linecap="round" />
	<path d="M 23.522 39.222 c -0.621 0 -1.222 -0.29 -1.606 -0.808 l -3.474 -4.678 v 3.485 c 0 1.104 -0.896 2 -2 2 s -2 -0.896 -2 -2 v -9.533 c 0 -0.863 0.553 -1.628 1.372 -1.899 c 0.821 -0.272 1.719 0.014 2.233 0.707 l 3.474 4.678 v -3.485 c 0 -1.104 0.896 -2 2 -2 s 2 0.896 2 2 v 9.533 c 0 0.863 -0.553 1.628 -1.372 1.899 C 23.943 39.189 23.731 39.222 23.522 39.222 z" style="stroke: none; stroke-width: 1; stroke-dasharray: none; stroke-linecap: butt; stroke-linejoin: miter; stroke-miterlimit: 10; fill: rgb(238,238,238); fill-rule: nonzero; opacity: 1;" transform=" matrix(1 0 0 1 0 0) " stroke-linecap="round" />
	<path d="M 34.425 34.456 c 1.104 0 2 -0.896 2 -2 s -0.896 -2 -2 -2 h -2.809 v -0.767 h 2.809 c 1.104 0 2 -0.896 2 -2 s -0.896 -2 -2 -2 h -4.809 c -1.104 0 -2 0.896 -2 2 v 9.533 c 0 1.104 0.896 2 2 2 h 4.809 c 1.104 0 2 -0.896 2 -2 s -0.896 -2 -2 -2 h -2.809 v -0.767 H 34.425 z" style="stroke: none; stroke-width: 1; stroke-dasharray: none; stroke-linecap: butt; stroke-linejoin: miter; stroke-miterlimit: 10; fill: rgb(238,238,238); fill-rule: nonzero; opacity: 1;" transform=" matrix(1 0 0 1 0 0) " stroke-linecap="round" />
	<path d="M 42.156 39.222 c -0.03 0 -0.06 0 -0.09 -0.002 c -0.896 -0.04 -1.655 -0.671 -1.858 -1.544 l -2.223 -9.533 c -0.251 -1.076 0.418 -2.151 1.494 -2.402 c 1.074 -0.253 2.151 0.417 2.402 1.494 l 0.606 2.598 l 0.913 -2.77 c 0.271 -0.82 1.036 -1.374 1.899 -1.374 l 0 0 c 0.863 0 1.629 0.554 1.899 1.374 l 0.913 2.77 l 0.606 -2.598 c 0.25 -1.076 1.327 -1.744 2.401 -1.494 c 1.076 0.251 1.744 1.326 1.493 2.402 l -2.224 9.533 c -0.203 0.873 -0.963 1.504 -1.858 1.544 c -0.868 0.047 -1.707 -0.521 -1.988 -1.372 l -1.243 -3.771 l -1.244 3.772 C 43.784 38.671 43.016 39.222 42.156 39.222 z" style="stroke: none; stroke-width: 1; stroke-dasharray: none; stroke-linecap: butt; stroke-linejoin: miter; stroke-miterlimit: 10; fill: rgb(238,238,238); fill-rule: nonzero; opacity: 1;" transform=" matrix(1 0 0 1 0 0) " stroke-linecap="round" />
	<path d="M 58.954 39.222 h -3.557 c -1.104 0 -2 -0.896 -2 -2 s 0.896 -2 2 -2 h 3.557 c 0.212 0 0.384 -0.172 0.384 -0.383 s -0.172 -0.383 -0.384 -0.383 h -1.173 c -2.417 0 -4.384 -1.966 -4.384 -4.383 s 1.967 -4.383 4.384 -4.383 h 2.746 c 1.104 0 2 0.896 2 2 s -0.896 2 -2 2 h -2.746 c -0.212 0 -0.384 0.172 -0.384 0.383 s 0.172 0.383 0.384 0.383 h 1.173 c 2.417 0 4.384 1.966 4.384 4.383 S 61.371 39.222 58.954 39.222 z" style="stroke: none; stroke-width: 1; stroke-dasharray: none; stroke-linecap: butt; stroke-linejoin: miter; stroke-miterlimit: 10; fill: rgb(238,238,238); fill-rule: nonzero; opacity: 1;" transform=" matrix(1 0 0 1 0 0) " stroke-linecap="round" />
	<path d="M 10.263 34.456 H 7.766 c -1.104 0 -2 -0.896 -2 -2 s 0.896 -2 2 -2 h 2.497 c 1.104 0 2 0.896 2 2 S 11.367 34.456 10.263 34.456 z" style="stroke: none; stroke-width: 1; stroke-dasharray: none; stroke-linecap: butt; stroke-linejoin: miter; stroke-miterlimit: 10; fill: rgb(238,238,238); fill-rule: nonzero; opacity: 1;" transform=" matrix(1 0 0 1 0 0) " stroke-linecap="round" />
	<path d="M 69.46 34.456 h -2.497 c -1.104 0 -2 -0.896 -2 -2 s 0.896 -2 2 -2 h 2.497 c 1.104 0 2 0.896 2 2 S 70.564 34.456 69.46 34.456 z" style="stroke: none; stroke-width: 1; stroke-dasharray: none; stroke-linecap: butt; stroke-linejoin: miter; stroke-miterlimit: 10; fill: rgb(238,238,238); fill-rule: nonzero; opacity: 1;" transform=" matrix(1 0 0 1 0 0) " stroke-linecap="round" />
</g>
</svg>