<?xml version="1.0" encoding="UTF-8"?>
<svg width="1200pt" height="1200pt" version="1.1" viewBox="0 0 1200 1200" xmlns="http://www.w3.org/2000/svg">
 <path d="m570.31 1127h-0.046875c-76.043-0.023438-165.37-52.246-238.92-139.69-81.684-97.105-133.95-224.55-147.2-358.89l-1.043-10.5 10.055 3.168c0.52734 0.16797 52.992 16.453 109.97 16.453 36.359 0 66.539-6.5156 89.676-19.379l6.7695-3.7578 3.0234 7.1289c0.89844 2.1133 90.266 212.04 126.23 247.18 10.246 10.008 19.656 15.07 27.973 15.07 10.355 0 16.477-8.1367 17.82-10.152 44.363-118.92 120.84-291.72 153.72-364.99-6.1094-6.9492-9.4922-12.516-10.309-13.957-2.8672-4.1641-31.523-47.219-36.684-106.55-1.5469-17.762-5.9531-38.531-10.199-58.633-9.2148-43.465-14.305-70.766-3.7188-83.844 4.9336-6.0703 12.742-8.1367 22.535-5.6758 35.664 8.9141 48.254 50.977 58.285 84.926 3.6016-31.859 6.6367-85.066-4.2109-134.93-6.3477-29.23-4.3438-52.992 5.4961-65.207 4.2344-5.2578 9.8984-8.1602 15.938-8.1602 18.406 0 34.453 25.031 40.922 63.793 5.3984 32.496 8.2305 58.453 9.625 78.098 6.2148-29.449 11.375-71.543 6.1328-119.65-3.0117-27.648 0.35938-47.797 9.7578-58.273 10.211-11.375 27.301-9.793 40.57 4.1055 14.281 14.988 22.117 39.469 20.941 65.531 0.23828 4.1406 1.6328 35.82-4.4023 88.559 6.6719-21.191 13.105-46.223 16.609-72.07 5.0742-37.355 18.324-45.203 28.547-45.203 6.1445 0 12.18 3.0352 17.473 8.8203 9.9102 10.812 15.359 28.766 13.883 45.742-3.0469 35.004-18.574 86.508-35.387 138.96 12.047-12.422 27.086-29.82 37.129-48.168 9.3359-17.062 21.684-27.266 32.977-27.266 5.6055 0 10.332 2.5664 13.355 7.1992 5.375 8.3281 4.1641 22.273-3.457 39.254-20.723 46.223-37.32 74.699-50.832 96.48-3.4219 5.4844-5.3633 16.031-7.6211 28.246-7.0195 38.125-17.641 95.711-90.527 124.05-3.4219 1.3203-6.9258 2.5547-10.586 3.707-18.781 105.24-70.188 356.38-156.24 513.21-27.023 49.227-69.898 75.266-124.02 75.266zm-371.22-489.77c30.77 268.75 223.08 475.8 371.2 475.85h0.035157c48.73 0 87.371-23.531 111.79-68.062 86.23-157.15 137.46-411.21 155.5-513.14l0.75781-4.2734 4.1641-1.2109c4.8359-1.4023 9.2656-2.8789 13.586-4.5469 65.629-25.523 75.023-76.43 81.863-113.61 2.6172-14.148 4.6797-25.344 9.4688-33.07 13.273-21.371 29.578-49.367 49.98-94.836 6.8633-15.336 6.0352-23.555 4.4648-25.98-1.8477-2.8906-12.445 0.96094-22.43 19.188-20.387 37.234-58.246 69.301-59.855 70.656l-18.59 15.625 7.8477-24.238c18.457-57.086 39.383-121.78 42.781-160.71 1.2852-15-4.4141-28.727-10.285-35.125-2.5078-2.7344-5.125-4.3086-7.2109-4.3086-3.7812 0-11.195 6.9844-14.746 33.156-9.6016 70.668-39.336 133.3-40.609 135.93l-22.691 47.281 9.5625-51.562c16.98-91.777 13.836-148.98 13.801-149.54l-0.023437-0.37109 0.023437-0.37109c1.2461-26.473-8.0039-46.094-17.102-55.633-7.3711-7.7617-15.051-10.066-20.078-4.4492-3.0977 3.4219-9.8398 14.902-6.3008 47.473 10.523 96.266-18.359 167.44-19.609 170.43l-17.148 41.461 3.7812-44.723c0.035156-0.39453 3.1914-40.5-10.367-121.81-6.3242-37.992-20.016-52.152-27.18-52.152-0.66016 0-2.6992 0-5.1016 2.9766-5.4609 6.7812-9.0469 24.406-2.7227 53.508 17.484 80.461 0.75781 166.12 0.023438 169.73l-4.5977 22.98-8.7109-21.758c-3.3711-8.4375-6.2773-18.277-9.3711-28.703-9.5273-32.23-20.328-68.746-48.422-75.758-1.6445-0.42188-3.0859-0.625-4.3086-0.625-2.4375 0-3.3711 0.74219-4.0312 1.5586-6.9375 8.5664 0.51563 43.836 6.5156 72.191 4.3438 20.496 8.832 41.699 10.441 60.312 4.9922 57.254 34.129 99.625 34.402 100.04l0.38281 0.61328c0.035156 0.046875 3.8633 6.8047 11.605 14.902l3.2539 3.3945-1.9219 4.2734c-31.754 70.691-110.46 248.14-155.51 369.02l-0.50391 1.0781c-0.42188 0.70703-10.441 17.438-30.109 17.438-12.098 0-24.781-6.3945-37.715-19.031-34.512-33.707-110.2-207.19-126.36-244.78-24.168 11.676-54.254 17.578-89.605 17.578-44.637-0.027344-85.629-9.3516-104.01-14.25z" style="fill: rgb(238, 238, 238)"/>
</svg>
